<svg xmlns="http://www.w3.org/2000/svg" xmlns:xlink="http://www.w3.org/1999/xlink" width="500" zoomAndPan="magnify" viewBox="0 0 375 374.999991" height="500" preserveAspectRatio="xMidYMid meet" version="1.0"><defs><clipPath id="id1"><path d="M 98.160156 85.144531 L 309 85.144531 L 309 304 L 98.160156 304 Z M 98.160156 85.144531 " clip-rule="nonzero"/></clipPath></defs><g clip-path="url(#id1)"><path fill="#f0ebe0" d="M 173.476562 106.695312 C 174.089844 94.761719 184.3125 87.066406 184.75 86.742188 C 186.714844 85.296875 189.484375 85.707031 190.933594 87.675781 C 192.382812 89.640625 191.96875 92.40625 190.019531 93.863281 C 189.945312 93.917969 182.671875 99.480469 182.304688 107.207031 C 182.070312 112.191406 184.777344 117.304688 190.355469 122.398438 C 197.617188 129.03125 201.300781 136.460938 201.308594 144.484375 C 201.316406 157.886719 190.808594 167.667969 190.359375 168.078125 C 189.511719 168.855469 188.441406 169.238281 187.378906 169.238281 C 186.179688 169.238281 184.984375 168.75 184.113281 167.796875 C 182.464844 165.992188 182.589844 163.191406 184.394531 161.539062 C 184.460938 161.472656 192.5 153.902344 192.460938 144.433594 C 192.441406 139.023438 189.726562 133.8125 184.398438 128.945312 C 176.746094 121.960938 173.074219 114.472656 173.476562 106.695312 Z M 204.097656 119.710938 C 204.605469 109.824219 213.042969 103.472656 213.398438 103.210938 C 215.363281 101.761719 218.132812 102.175781 219.585938 104.144531 C 221.03125 106.105469 220.621094 108.871094 218.671875 110.328125 C 218.546875 110.421875 213.1875 114.578125 212.925781 120.21875 C 212.757812 123.878906 214.804688 127.679688 219.007812 131.519531 C 224.957031 136.953125 227.976562 143.066406 227.980469 149.695312 C 227.988281 160.714844 219.378906 168.730469 219.007812 169.066406 C 218.160156 169.84375 217.09375 170.226562 216.027344 170.226562 C 214.828125 170.226562 213.632812 169.738281 212.761719 168.785156 C 211.113281 166.976562 211.238281 164.175781 213.042969 162.527344 C 213.089844 162.480469 219.167969 156.730469 219.136719 149.648438 C 219.117188 145.632812 217.066406 141.738281 213.046875 138.0625 C 206.773438 132.335938 203.761719 126.160156 204.097656 119.710938 Z M 146.796875 119.710938 C 147.304688 109.824219 155.742188 103.472656 156.097656 103.210938 C 158.0625 101.761719 160.832031 102.175781 162.285156 104.144531 C 163.730469 106.105469 163.320312 108.871094 161.371094 110.328125 C 161.246094 110.421875 155.886719 114.578125 155.625 120.21875 C 155.457031 123.878906 157.503906 127.679688 161.707031 131.519531 C 167.65625 136.953125 170.675781 143.066406 170.679688 149.695312 C 170.6875 160.714844 162.078125 168.730469 161.710938 169.066406 C 160.859375 169.84375 159.792969 170.226562 158.726562 170.226562 C 157.527344 170.226562 156.332031 169.738281 155.460938 168.785156 C 153.8125 166.976562 153.9375 164.175781 155.742188 162.527344 C 155.789062 162.480469 161.871094 156.730469 161.835938 149.648438 C 161.816406 145.632812 159.765625 141.738281 155.746094 138.0625 C 149.472656 132.335938 146.460938 126.160156 146.796875 119.710938 Z M 298.964844 223.890625 C 297.476562 229.796875 292.371094 234.5 287.570312 238.316406 C 283.816406 241.308594 277.808594 244.988281 272.613281 248.007812 C 275.667969 239.46875 277.324219 230.566406 278.011719 221.136719 C 278.015625 221.125 278.015625 221.109375 278.015625 221.097656 C 278.113281 219.785156 278.183594 218.449219 278.242188 217.113281 C 278.269531 216.546875 278.292969 215.976562 278.3125 215.402344 C 278.347656 214.238281 278.375 213.070312 278.390625 211.894531 C 278.398438 211.105469 278.394531 210.296875 278.394531 209.492188 C 278.390625 208.777344 278.40625 208.070312 278.394531 207.347656 C 278.695312 207.285156 279 207.28125 279.289062 207.15625 C 284.125 205.046875 290.3125 205.96875 294.332031 209.382812 C 298.347656 212.804688 300.257812 218.765625 298.964844 223.890625 Z M 113.382812 192.25 C 113.386719 192.257812 113.390625 192.265625 113.394531 192.273438 C 113.796875 193.507812 114.082031 194.761719 114.308594 196.03125 C 114.359375 196.335938 114.410156 196.648438 114.453125 196.957031 C 114.632812 198.234375 114.757812 199.519531 114.757812 200.824219 C 114.757812 201.886719 114.675781 202.9375 114.558594 203.976562 C 114.523438 204.269531 114.480469 204.5625 114.4375 204.855469 C 114.320312 205.664062 114.167969 206.460938 113.980469 207.25 C 113.921875 207.492188 113.875 207.738281 113.808594 207.980469 C 113.546875 208.96875 113.230469 209.9375 112.863281 210.886719 C 112.785156 211.082031 112.691406 211.273438 112.609375 211.46875 C 112.289062 212.230469 111.9375 212.980469 111.550781 213.710938 C 111.410156 213.976562 111.269531 214.238281 111.121094 214.5 C 110.675781 215.277344 110.195312 216.035156 109.679688 216.765625 C 109.601562 216.875 109.53125 216.992188 109.453125 217.101562 C 108.957031 217.777344 108.402344 218.410156 107.84375 219.042969 C 107.824219 218.707031 107.804688 218.367188 107.785156 218.027344 C 107.703125 216.578125 107.640625 215.109375 107.601562 213.589844 C 107.59375 213.179688 107.589844 212.765625 107.582031 212.351562 C 107.554688 210.671875 107.550781 208.949219 107.582031 207.175781 C 107.585938 206.824219 107.589844 206.46875 107.597656 206.113281 C 107.636719 204.238281 107.707031 202.304688 107.804688 200.316406 C 107.820312 200.003906 107.828125 199.699219 107.84375 199.386719 C 107.96875 197.085938 108.121094 194.714844 108.320312 192.25 Z M 134.394531 192.25 C 134.402344 192.28125 134.402344 192.3125 134.410156 192.339844 C 134.707031 193.699219 134.917969 195.074219 135.085938 196.445312 C 135.132812 196.800781 135.167969 197.152344 135.203125 197.507812 C 135.34375 198.921875 135.4375 200.332031 135.4375 201.75 C 135.4375 203.707031 135.285156 205.636719 135.039062 207.535156 C 135.011719 207.734375 135 207.933594 134.972656 208.128906 C 134.714844 209.929688 134.332031 211.691406 133.863281 213.421875 C 133.792969 213.6875 133.722656 213.957031 133.648438 214.222656 C 133.15625 215.902344 132.566406 217.546875 131.886719 219.140625 C 131.769531 219.414062 131.652344 219.679688 131.53125 219.945312 C 130.820312 221.53125 130.023438 223.074219 129.128906 224.558594 C 128.996094 224.78125 128.851562 225 128.710938 225.21875 C 127.769531 226.726562 126.75 228.183594 125.632812 229.5625 C 125.527344 229.691406 125.414062 229.8125 125.304688 229.9375 C 124.128906 231.359375 122.871094 232.714844 121.515625 233.980469 C 121.492188 234.003906 121.464844 234.035156 121.4375 234.058594 C 120.082031 235.316406 118.625 236.476562 117.109375 237.5625 C 116.9375 237.6875 116.769531 237.820312 116.59375 237.941406 C 115.128906 238.960938 113.578125 239.886719 111.972656 240.730469 C 111.839844 240.804688 111.707031 240.875 111.566406 240.945312 C 110.757812 238.230469 110.105469 235.460938 109.558594 232.652344 C 109.433594 232.003906 109.296875 231.371094 109.183594 230.710938 C 109.140625 230.464844 109.113281 230.210938 109.070312 229.960938 C 109.3125 229.777344 109.523438 229.566406 109.761719 229.378906 C 110.269531 228.976562 110.757812 228.550781 111.242188 228.125 C 111.871094 227.570312 112.484375 227 113.070312 226.40625 C 113.527344 225.945312 113.964844 225.476562 114.394531 224.996094 C 114.945312 224.375 115.46875 223.738281 115.972656 223.085938 C 116.367188 222.578125 116.75 222.070312 117.113281 221.546875 C 117.585938 220.863281 118.019531 220.160156 118.445312 219.449219 C 118.769531 218.90625 119.09375 218.371094 119.386719 217.8125 C 119.777344 217.066406 120.125 216.296875 120.464844 215.527344 C 120.714844 214.964844 120.972656 214.414062 121.191406 213.835938 C 121.507812 213.011719 121.757812 212.167969 122.011719 211.320312 C 122.175781 210.761719 122.371094 210.21875 122.511719 209.652344 C 122.746094 208.703125 122.90625 207.726562 123.066406 206.753906 C 123.144531 206.269531 123.261719 205.792969 123.320312 205.304688 C 123.5 203.828125 123.605469 202.335938 123.605469 200.824219 C 123.605469 199.449219 123.515625 198.089844 123.363281 196.738281 C 123.3125 196.292969 123.21875 195.855469 123.152344 195.417969 C 123.015625 194.511719 122.871094 193.613281 122.664062 192.722656 C 122.632812 192.566406 122.617188 192.40625 122.582031 192.25 Z M 182.503906 202.070312 C 182.210938 202.09375 181.921875 202.152344 181.628906 202.179688 C 181.089844 202.234375 180.5625 202.3125 180.027344 202.382812 C 178.765625 202.550781 177.511719 202.757812 176.265625 203.015625 C 175.722656 203.125 175.179688 203.234375 174.636719 203.363281 C 173.222656 203.699219 171.824219 204.097656 170.449219 204.550781 C 170.160156 204.644531 169.863281 204.714844 169.574219 204.816406 C 167.933594 205.386719 166.324219 206.050781 164.75 206.777344 C 164.3125 206.980469 163.894531 207.210938 163.464844 207.425781 C 162.316406 207.996094 161.1875 208.601562 160.082031 209.253906 C 159.578125 209.554688 159.085938 209.855469 158.59375 210.171875 C 157.507812 210.859375 156.457031 211.59375 155.425781 212.363281 C 155.035156 212.65625 154.632812 212.929688 154.25 213.230469 C 152.945312 214.261719 151.671875 215.34375 150.460938 216.5 C 150.382812 216.347656 150.300781 216.195312 150.222656 216.042969 C 149.457031 214.523438 148.75 213.011719 148.128906 211.515625 C 148.03125 211.285156 147.953125 211.058594 147.859375 210.832031 C 147.304688 209.445312 146.8125 208.070312 146.378906 206.707031 C 146.300781 206.457031 146.210938 206.207031 146.136719 205.960938 C 145.695312 204.488281 145.335938 203.035156 145.042969 201.59375 C 144.980469 201.285156 144.925781 200.984375 144.871094 200.679688 C 144.601562 199.207031 144.378906 197.746094 144.269531 196.304688 C 144.167969 195.035156 144.1875 193.734375 144.300781 192.421875 C 144.308594 192.367188 144.324219 192.308594 144.328125 192.25 L 182.503906 192.25 Z M 229.351562 192.25 C 229.359375 192.308594 229.375 192.367188 229.378906 192.421875 C 229.492188 193.734375 229.515625 195.035156 229.414062 196.304688 C 229.300781 197.734375 229.082031 199.1875 228.816406 200.648438 C 228.757812 200.957031 228.707031 201.265625 228.640625 201.578125 C 228.351562 203.007812 227.996094 204.449219 227.558594 205.90625 C 227.484375 206.15625 227.394531 206.410156 227.316406 206.664062 C 226.886719 208.019531 226.394531 209.386719 225.84375 210.765625 C 225.753906 210.992188 225.675781 211.210938 225.585938 211.433594 C 224.964844 212.9375 224.257812 214.453125 223.488281 215.980469 C 223.417969 216.117188 223.34375 216.257812 223.273438 216.398438 C 222.0625 215.246094 220.789062 214.171875 219.484375 213.148438 C 219.117188 212.855469 218.734375 212.597656 218.355469 212.316406 C 217.308594 211.542969 216.242188 210.800781 215.148438 210.105469 C 214.667969 209.800781 214.183594 209.503906 213.695312 209.214844 C 212.578125 208.558594 211.4375 207.949219 210.277344 207.375 C 209.859375 207.167969 209.453125 206.945312 209.03125 206.75 C 207.457031 206.023438 205.855469 205.367188 204.214844 204.800781 C 203.921875 204.699219 203.625 204.625 203.332031 204.53125 C 201.964844 204.082031 200.582031 203.691406 199.175781 203.355469 C 198.628906 203.226562 198.078125 203.117188 197.527344 203.003906 C 196.304688 202.753906 195.070312 202.550781 193.828125 202.386719 C 193.28125 202.3125 192.738281 202.234375 192.1875 202.179688 C 191.90625 202.148438 191.628906 202.097656 191.347656 202.074219 L 191.347656 192.25 Z M 251.015625 192.722656 C 250.8125 193.613281 250.664062 194.511719 250.527344 195.417969 C 250.460938 195.855469 250.371094 196.292969 250.320312 196.738281 C 250.167969 198.089844 250.078125 199.449219 250.078125 200.824219 C 250.078125 202.519531 250.203125 204.1875 250.429688 205.832031 C 250.503906 206.378906 250.644531 206.898438 250.742188 207.4375 C 250.9375 208.523438 251.136719 209.601562 251.429688 210.65625 C 251.601562 211.277344 251.832031 211.871094 252.035156 212.476562 C 252.351562 213.414062 252.664062 214.34375 253.046875 215.246094 C 253.316406 215.867188 253.632812 216.464844 253.929688 217.070312 C 254.351562 217.914062 254.773438 218.746094 255.257812 219.554688 C 255.613281 220.148438 256.003906 220.71875 256.394531 221.292969 C 256.914062 222.054688 257.445312 222.800781 258.019531 223.523438 C 258.460938 224.074219 258.921875 224.605469 259.398438 225.132812 C 260.011719 225.8125 260.644531 226.46875 261.3125 227.105469 C 261.828125 227.601562 262.359375 228.082031 262.90625 228.546875 C 263.613281 229.144531 264.347656 229.707031 265.101562 230.253906 C 265.6875 230.679688 266.277344 231.101562 266.894531 231.496094 C 267.15625 231.664062 267.390625 231.863281 267.664062 232.027344 C 267.410156 233.371094 267.144531 234.703125 266.835938 236.023438 C 266.820312 236.09375 266.804688 236.167969 266.789062 236.238281 C 266.46875 237.59375 266.09375 238.933594 265.707031 240.273438 C 265.589844 240.660156 265.488281 241.058594 265.367188 241.449219 C 265.269531 241.765625 265.152344 242.074219 265.054688 242.386719 C 264.511719 242.15625 263.976562 241.910156 263.449219 241.660156 C 263.070312 241.480469 262.679688 241.316406 262.308594 241.125 C 261.542969 240.734375 260.796875 240.3125 260.0625 239.882812 C 259.824219 239.746094 259.578125 239.621094 259.347656 239.480469 C 258.382812 238.894531 257.449219 238.273438 256.535156 237.621094 C 256.335938 237.476562 256.148438 237.3125 255.949219 237.164062 C 255.253906 236.644531 254.5625 236.117188 253.898438 235.558594 C 253.601562 235.304688 253.316406 235.035156 253.027344 234.773438 C 252.488281 234.296875 251.953125 233.820312 251.441406 233.320312 C 251.125 233.007812 250.828125 232.683594 250.519531 232.363281 C 250.0625 231.882812 249.601562 231.40625 249.167969 230.90625 C 248.859375 230.554688 248.566406 230.191406 248.269531 229.828125 C 247.863281 229.335938 247.464844 228.839844 247.082031 228.332031 C 246.792969 227.949219 246.519531 227.554688 246.246094 227.164062 C 245.882812 226.648438 245.53125 226.132812 245.191406 225.601562 C 244.933594 225.195312 244.683594 224.78125 244.433594 224.367188 C 244.117188 223.828125 243.808594 223.285156 243.515625 222.730469 C 243.28125 222.304688 243.058594 221.871094 242.84375 221.433594 C 242.566406 220.875 242.304688 220.308594 242.046875 219.734375 C 241.851562 219.289062 241.65625 218.839844 241.472656 218.386719 C 241.238281 217.800781 241.023438 217.207031 240.8125 216.609375 C 240.648438 216.152344 240.484375 215.695312 240.335938 215.234375 C 240.140625 214.613281 239.96875 213.984375 239.800781 213.355469 C 239.679688 212.898438 239.546875 212.441406 239.4375 211.976562 C 239.28125 211.316406 239.160156 210.644531 239.03125 209.972656 C 238.949219 209.53125 238.855469 209.089844 238.78125 208.640625 C 238.667969 207.890625 238.589844 207.132812 238.511719 206.371094 C 238.472656 205.988281 238.414062 205.609375 238.382812 205.226562 C 238.296875 204.078125 238.246094 202.917969 238.246094 201.75 C 238.246094 200.335938 238.339844 198.921875 238.476562 197.511719 C 238.511719 197.15625 238.550781 196.800781 238.59375 196.445312 C 238.761719 195.074219 238.972656 193.707031 239.269531 192.351562 C 239.277344 192.320312 239.28125 192.285156 239.289062 192.25 L 251.101562 192.25 C 251.0625 192.40625 251.050781 192.566406 251.015625 192.722656 Z M 269.261719 199.664062 C 269.300781 200.445312 269.332031 201.222656 269.367188 201.996094 C 269.433594 203.578125 269.476562 205.113281 269.503906 206.617188 C 269.519531 207.5 269.542969 208.386719 269.546875 209.257812 C 269.550781 210.636719 269.523438 211.949219 269.496094 213.269531 C 269.453125 215.152344 269.375 217.011719 269.261719 218.84375 C 269.214844 219.570312 269.183594 220.3125 269.125 221.023438 C 269.097656 221.390625 269.050781 221.742188 269.015625 222.101562 C 268.835938 221.953125 268.636719 221.820312 268.457031 221.667969 C 268.152344 221.40625 267.855469 221.128906 267.5625 220.855469 C 266.972656 220.300781 266.414062 219.71875 265.878906 219.117188 C 265.628906 218.835938 265.371094 218.558594 265.132812 218.265625 C 264.484375 217.476562 263.882812 216.65625 263.332031 215.800781 C 263.253906 215.683594 263.164062 215.574219 263.085938 215.453125 C 262.476562 214.476562 261.941406 213.449219 261.457031 212.402344 C 261.316406 212.089844 261.199219 211.765625 261.066406 211.449219 C 260.746094 210.683594 260.457031 209.902344 260.210938 209.105469 C 260.089844 208.71875 259.980469 208.332031 259.878906 207.941406 C 259.664062 207.144531 259.5 206.332031 259.359375 205.511719 C 259.296875 205.148438 259.222656 204.789062 259.175781 204.421875 C 259.023438 203.238281 258.921875 202.042969 258.921875 200.824219 C 258.921875 199.519531 259.046875 198.234375 259.226562 196.957031 C 259.269531 196.648438 259.320312 196.335938 259.375 196.03125 C 259.601562 194.761719 259.882812 193.507812 260.289062 192.273438 C 260.289062 192.265625 260.292969 192.257812 260.296875 192.25 L 268.773438 192.25 C 268.984375 194.835938 269.132812 197.277344 269.261719 199.664062 Z M 142.902344 260.992188 L 144.183594 260.089844 L 162.296875 247.351562 C 170.375 255.789062 177.984375 261.871094 181.507812 264.539062 C 180.6875 264.742188 179.902344 265.035156 179.128906 265.34375 C 178.964844 265.40625 178.785156 265.441406 178.625 265.511719 C 177.574219 265.960938 176.582031 266.511719 175.644531 267.132812 C 175.378906 267.308594 175.152344 267.519531 174.898438 267.707031 C 174.246094 268.191406 173.617188 268.691406 173.027344 269.253906 C 172.734375 269.535156 172.472656 269.84375 172.195312 270.144531 C 171.707031 270.675781 171.246094 271.222656 170.824219 271.808594 C 170.570312 272.160156 170.335938 272.515625 170.105469 272.886719 C 169.726562 273.492188 169.390625 274.121094 169.082031 274.769531 C 168.898438 275.15625 168.710938 275.535156 168.554688 275.9375 C 168.269531 276.660156 168.054688 277.40625 167.859375 278.171875 C 167.765625 278.535156 167.648438 278.882812 167.574219 279.253906 C 167.355469 280.402344 167.21875 281.578125 167.21875 282.789062 C 167.21875 283.964844 167.359375 285.101562 167.5625 286.21875 C 167.625 286.550781 167.714844 286.867188 167.792969 287.195312 C 167.988281 287.992188 168.222656 288.765625 168.515625 289.519531 C 168.636719 289.839844 168.757812 290.15625 168.894531 290.46875 C 169.28125 291.324219 169.726562 292.148438 170.234375 292.933594 C 170.320312 293.070312 170.390625 293.21875 170.480469 293.351562 C 170.484375 293.359375 170.488281 293.367188 170.496094 293.375 C 162.132812 291.84375 152.046875 288.964844 142.902344 283.542969 Z M 130.347656 273.476562 C 129.660156 272.722656 129.042969 271.960938 128.390625 271.199219 L 134.054688 267.214844 L 134.054688 277.132812 C 132.769531 275.988281 131.53125 274.773438 130.347656 273.476562 Z M 203.347656 242.921875 C 198.886719 247.429688 194.628906 251.167969 191.347656 253.878906 L 191.347656 234.851562 Z M 182.410156 233.199219 L 182.503906 233.132812 L 182.503906 254.023438 C 179.035156 251.164062 174.429688 247.121094 169.625 242.195312 Z M 143.84375 245.96875 C 143.941406 245.496094 144.042969 245.019531 144.15625 244.546875 C 144.414062 243.472656 144.71875 242.410156 145.058594 241.359375 C 145.171875 241 145.265625 240.640625 145.390625 240.285156 C 145.875 238.90625 146.417969 237.550781 147.035156 236.222656 C 147.167969 235.941406 147.324219 235.671875 147.460938 235.390625 C 147.972656 234.347656 148.519531 233.324219 149.113281 232.324219 C 149.210938 232.15625 149.324219 231.992188 149.425781 231.824219 C 149.859375 232.445312 150.34375 233.066406 150.800781 233.6875 C 151.316406 234.394531 151.816406 235.097656 152.355469 235.800781 C 152.988281 236.625 153.660156 237.445312 154.324219 238.265625 C 154.875 238.953125 155.417969 239.640625 155.992188 240.328125 C 156.105469 240.457031 156.207031 240.59375 156.316406 240.726562 L 143.210938 249.949219 C 143.242188 249.660156 143.285156 249.375 143.324219 249.085938 C 143.460938 248.039062 143.632812 247 143.84375 245.96875 Z M 185.96875 292.714844 C 180.507812 292.714844 176.0625 288.261719 176.0625 282.789062 C 176.0625 277.316406 180.507812 272.863281 185.96875 272.863281 C 191.433594 272.863281 195.878906 277.316406 195.878906 282.789062 C 195.878906 288.261719 191.433594 292.714844 185.96875 292.714844 Z M 228.5 240.433594 C 228.636719 240.824219 228.75 241.226562 228.875 241.625 C 229.214844 242.707031 229.515625 243.804688 229.773438 244.910156 C 229.878906 245.363281 229.984375 245.816406 230.074219 246.277344 C 230.324219 247.539062 230.523438 248.816406 230.664062 250.101562 C 230.683594 250.292969 230.71875 250.480469 230.738281 250.671875 L 226.785156 248.015625 L 216.851562 241.332031 C 216.980469 241.179688 217.097656 241.027344 217.222656 240.875 C 217.914062 240.0625 218.5625 239.246094 219.222656 238.429688 C 219.855469 237.648438 220.5 236.871094 221.105469 236.089844 C 221.746094 235.257812 222.339844 234.425781 222.945312 233.589844 C 223.40625 232.960938 223.902344 232.328125 224.34375 231.699219 C 224.445312 231.867188 224.554688 232.027344 224.65625 232.195312 C 225.332031 233.324219 225.957031 234.476562 226.527344 235.660156 C 226.617188 235.847656 226.726562 236.027344 226.816406 236.21875 C 227.453125 237.589844 228.007812 239 228.5 240.433594 Z M 192.675781 211.164062 C 193.789062 211.3125 194.894531 211.488281 195.988281 211.71875 C 196.488281 211.824219 196.980469 211.949219 197.476562 212.070312 C 198.4375 212.308594 199.390625 212.578125 200.332031 212.878906 C 200.820312 213.035156 201.308594 213.191406 201.789062 213.363281 C 202.800781 213.726562 203.796875 214.136719 204.777344 214.574219 C 205.136719 214.734375 205.507812 214.875 205.863281 215.046875 C 207.179688 215.675781 208.472656 216.367188 209.722656 217.128906 C 209.957031 217.269531 210.179688 217.4375 210.410156 217.582031 C 211.421875 218.222656 212.410156 218.898438 213.367188 219.621094 C 213.757812 219.917969 214.132812 220.230469 214.515625 220.539062 C 215.300781 221.175781 216.066406 221.835938 216.808594 222.527344 C 217.191406 222.878906 217.566406 223.238281 217.9375 223.601562 C 218.171875 223.835938 218.382812 224.09375 218.613281 224.332031 C 218.476562 224.535156 218.347656 224.742188 218.210938 224.949219 C 217.03125 226.710938 215.789062 228.480469 214.4375 230.253906 C 214.414062 230.277344 214.398438 230.304688 214.378906 230.332031 C 213.003906 232.125 211.515625 233.921875 209.972656 235.71875 C 209.792969 235.921875 209.609375 236.128906 209.425781 236.335938 L 202.570312 231.722656 L 191.347656 224.175781 L 191.347656 210.992188 C 191.429688 211 191.511719 211 191.59375 211.007812 C 191.957031 211.046875 192.3125 211.117188 192.675781 211.164062 Z M 156.957031 222.59375 C 157.695312 221.910156 158.457031 221.25 159.234375 220.617188 C 159.621094 220.300781 160.007812 219.980469 160.402344 219.675781 C 161.355469 218.957031 162.332031 218.285156 163.335938 217.644531 C 163.578125 217.492188 163.808594 217.316406 164.054688 217.164062 C 165.304688 216.402344 166.597656 215.707031 167.917969 215.074219 C 168.277344 214.902344 168.648438 214.757812 169.015625 214.597656 C 169.996094 214.15625 170.992188 213.746094 172.003906 213.382812 C 172.492188 213.207031 172.980469 213.046875 173.472656 212.890625 C 174.414062 212.585938 175.367188 212.316406 176.332031 212.078125 C 176.832031 211.957031 177.328125 211.828125 177.835938 211.722656 C 178.917969 211.496094 180.019531 211.316406 181.125 211.171875 C 181.5 211.121094 181.871094 211.050781 182.25 211.007812 C 182.332031 211 182.421875 211.003906 182.503906 210.992188 L 182.503906 222.304688 L 172.210938 229.546875 L 163.609375 235.597656 C 163.464844 235.425781 163.308594 235.253906 163.164062 235.085938 C 161.730469 233.398438 160.351562 231.710938 159.070312 230.023438 C 159.019531 229.957031 158.976562 229.890625 158.925781 229.824219 C 157.699219 228.207031 156.566406 226.59375 155.488281 224.984375 C 155.363281 224.800781 155.253906 224.617188 155.132812 224.4375 C 155.363281 224.195312 155.574219 223.933594 155.8125 223.699219 C 156.1875 223.324219 156.574219 222.957031 156.957031 222.59375 Z M 117.246094 254.941406 C 116.527344 253.558594 115.839844 252.167969 115.210938 250.765625 C 115.199219 250.746094 115.191406 250.726562 115.179688 250.703125 C 114.980469 250.257812 114.820312 249.800781 114.628906 249.351562 C 114.796875 249.269531 114.953125 249.164062 115.121094 249.082031 C 116.351562 248.464844 117.550781 247.800781 118.71875 247.097656 C 119.140625 246.84375 119.550781 246.582031 119.96875 246.316406 C 120.980469 245.667969 121.96875 244.984375 122.929688 244.273438 C 123.277344 244.019531 123.628906 243.773438 123.964844 243.511719 C 125.210938 242.542969 126.414062 241.53125 127.5625 240.460938 C 127.75 240.289062 127.917969 240.097656 128.101562 239.921875 C 129.058594 239.003906 129.976562 238.050781 130.855469 237.066406 C 131.183594 236.703125 131.496094 236.332031 131.8125 235.957031 C 132.566406 235.070312 133.285156 234.152344 133.976562 233.21875 C 134.234375 232.867188 134.5 232.527344 134.75 232.171875 C 135.636719 230.902344 136.476562 229.597656 137.253906 228.253906 C 137.386719 228.019531 137.5 227.777344 137.628906 227.542969 C 138.261719 226.402344 138.851562 225.238281 139.398438 224.050781 C 139.605469 223.601562 139.800781 223.148438 139.996094 222.691406 C 140.453125 221.621094 140.871094 220.53125 141.257812 219.429688 C 141.359375 219.140625 141.492188 218.867188 141.585938 218.574219 C 141.601562 218.597656 141.613281 218.621094 141.625 218.644531 C 142.347656 220.152344 143.148438 221.667969 143.992188 223.183594 C 144.078125 223.332031 144.140625 223.476562 144.222656 223.621094 C 144.070312 223.832031 143.9375 224.058594 143.789062 224.273438 C 143.429688 224.78125 143.089844 225.300781 142.753906 225.816406 C 142.289062 226.527344 141.839844 227.238281 141.410156 227.964844 C 141.089844 228.507812 140.789062 229.058594 140.488281 229.609375 C 140.09375 230.34375 139.714844 231.082031 139.351562 231.832031 C 139.078125 232.40625 138.808594 232.976562 138.554688 233.558594 C 138.222656 234.316406 137.914062 235.089844 137.617188 235.863281 C 137.390625 236.453125 137.167969 237.039062 136.960938 237.632812 C 136.6875 238.433594 136.445312 239.238281 136.210938 240.050781 C 136.039062 240.640625 135.859375 241.226562 135.707031 241.824219 C 135.492188 242.675781 135.3125 243.539062 135.140625 244.402344 C 135.027344 244.96875 134.894531 245.53125 134.800781 246.101562 C 134.640625 247.0625 134.527344 248.035156 134.417969 249.007812 C 134.367188 249.488281 134.289062 249.96875 134.25 250.453125 C 134.125 251.914062 134.054688 253.378906 134.054688 254.851562 L 134.054688 256.386719 L 122.921875 264.21875 C 122.5 263.625 122.117188 263.023438 121.714844 262.421875 C 121.265625 261.75 120.796875 261.074219 120.371094 260.394531 C 120.078125 259.929688 119.808594 259.457031 119.527344 258.988281 C 118.898438 257.929688 118.277344 256.871094 117.703125 255.800781 C 117.546875 255.515625 117.398438 255.226562 117.246094 254.941406 Z M 230.4375 285.613281 C 230.105469 285.785156 229.765625 285.933594 229.429688 286.097656 C 228.269531 286.664062 227.105469 287.214844 225.933594 287.710938 C 225.691406 287.8125 225.449219 287.910156 225.207031 288.007812 C 223.882812 288.558594 222.550781 289.074219 221.230469 289.539062 C 221.160156 289.566406 221.089844 289.589844 221.019531 289.613281 C 213.652344 292.191406 206.484375 293.5625 200.78125 294.296875 C 200.921875 294.113281 201.027344 293.902344 201.164062 293.710938 C 201.40625 293.371094 201.628906 293.019531 201.851562 292.664062 C 202.230469 292.050781 202.574219 291.421875 202.882812 290.765625 C 203.0625 290.382812 203.242188 290.007812 203.398438 289.613281 C 203.679688 288.890625 203.898438 288.144531 204.089844 287.378906 C 204.179688 287.019531 204.296875 286.675781 204.367188 286.304688 C 204.585938 285.164062 204.722656 283.996094 204.722656 282.789062 C 204.722656 281.601562 204.582031 280.445312 204.371094 279.316406 C 204.304688 278.960938 204.199219 278.621094 204.113281 278.273438 C 203.921875 277.503906 203.699219 276.757812 203.414062 276.03125 C 203.273438 275.660156 203.117188 275.296875 202.953125 274.941406 C 202.628906 274.246094 202.265625 273.582031 201.863281 272.933594 C 201.671875 272.625 201.5 272.316406 201.289062 272.019531 C 200.734375 271.226562 200.117188 270.480469 199.449219 269.785156 C 199.355469 269.6875 199.277344 269.574219 199.183594 269.476562 C 198.402344 268.699219 197.546875 268.003906 196.640625 267.375 C 196.375 267.191406 196.09375 267.042969 195.820312 266.875 C 195.144531 266.453125 194.453125 266.070312 193.730469 265.734375 C 193.375 265.574219 193.015625 265.433594 192.648438 265.292969 C 192.328125 265.167969 192.027344 265.003906 191.699219 264.898438 C 194.898438 262.5 202.566406 256.472656 210.816406 247.945312 L 221.636719 255.222656 L 230.953125 261.488281 L 230.953125 285.332031 C 230.78125 285.417969 230.613281 285.523438 230.4375 285.613281 Z M 241.636719 278.265625 C 241.03125 278.773438 240.421875 279.273438 239.796875 279.75 L 239.796875 267.441406 L 247.484375 272.613281 C 247.226562 272.902344 247.003906 273.191406 246.742188 273.476562 C 245.617188 274.714844 244.429688 275.867188 243.207031 276.964844 C 242.707031 277.414062 242.160156 277.832031 241.636719 278.265625 Z M 259.316406 255.933594 C 258.664062 257.140625 257.976562 258.34375 257.25 259.539062 C 257.039062 259.882812 256.820312 260.230469 256.601562 260.574219 C 255.914062 261.671875 255.183594 262.765625 254.425781 263.851562 C 254.171875 264.21875 253.921875 264.585938 253.660156 264.949219 C 253.480469 265.203125 253.269531 265.453125 253.085938 265.707031 L 244.78125 260.121094 L 239.796875 256.765625 L 239.796875 254.851562 C 239.796875 253.371094 239.726562 251.898438 239.601562 250.429688 C 239.5625 249.945312 239.480469 249.46875 239.429688 248.988281 C 239.320312 248.007812 239.207031 247.03125 239.042969 246.058594 C 238.949219 245.492188 238.816406 244.933594 238.703125 244.367188 C 238.527344 243.496094 238.347656 242.621094 238.128906 241.757812 C 237.976562 241.167969 237.796875 240.585938 237.628906 240 C 237.386719 239.179688 237.140625 238.359375 236.859375 237.550781 C 236.65625 236.960938 236.429688 236.378906 236.207031 235.796875 C 235.90625 235.011719 235.589844 234.230469 235.25 233.460938 C 234.996094 232.882812 234.726562 232.3125 234.453125 231.742188 C 234.085938 230.984375 233.703125 230.246094 233.300781 229.507812 C 233 228.949219 232.691406 228.398438 232.371094 227.855469 C 231.9375 227.125 231.484375 226.414062 231.015625 225.703125 C 230.671875 225.183594 230.332031 224.660156 229.96875 224.152344 C 229.816406 223.933594 229.683594 223.707031 229.527344 223.496094 C 229.613281 223.34375 229.679688 223.195312 229.761719 223.046875 C 230.582031 221.566406 231.363281 220.089844 232.070312 218.617188 C 232.078125 218.601562 232.085938 218.582031 232.09375 218.566406 C 232.121094 218.644531 232.160156 218.71875 232.183594 218.796875 C 232.695312 220.316406 233.289062 221.800781 233.929688 223.257812 C 234.132812 223.714844 234.347656 224.160156 234.5625 224.609375 C 235.109375 225.769531 235.699219 226.902344 236.332031 228.015625 C 236.550781 228.398438 236.757812 228.789062 236.984375 229.167969 C 237.847656 230.601562 238.765625 232.003906 239.757812 233.34375 C 239.90625 233.546875 240.074219 233.734375 240.226562 233.933594 C 241.09375 235.078125 242.011719 236.179688 242.972656 237.25 C 243.304688 237.617188 243.644531 237.976562 243.984375 238.335938 C 244.898438 239.296875 245.847656 240.222656 246.835938 241.113281 C 247.121094 241.367188 247.394531 241.640625 247.683594 241.890625 C 248.953125 242.988281 250.28125 244.03125 251.660156 245.007812 C 251.957031 245.21875 252.269531 245.410156 252.574219 245.613281 C 253.695312 246.375 254.851562 247.09375 256.035156 247.773438 C 256.480469 248.027344 256.929688 248.277344 257.386719 248.519531 C 258.640625 249.1875 259.929688 249.808594 261.25 250.382812 C 261.476562 250.480469 261.683594 250.605469 261.914062 250.703125 C 261.238281 252.214844 260.5 253.710938 259.71875 255.199219 C 259.589844 255.445312 259.449219 255.683594 259.316406 255.933594 Z M 300.054688 202.628906 C 294.074219 197.539062 285.5 195.921875 278.042969 198.230469 C 278.011719 197.699219 277.972656 197.152344 277.941406 196.609375 C 277.882812 195.730469 277.84375 194.871094 277.777344 193.984375 C 277.625 191.859375 277.441406 189.675781 277.230469 187.410156 C 277.019531 185.132812 275.109375 183.390625 272.828125 183.390625 L 104.261719 183.390625 C 101.980469 183.390625 100.070312 185.132812 99.859375 187.410156 C 99.660156 189.546875 99.488281 191.625 99.34375 193.648438 C 99.230469 195.152344 99.148438 196.628906 99.0625 198.105469 C 99.039062 198.539062 99.003906 198.988281 98.984375 199.414062 C 98.894531 201.144531 98.832031 202.851562 98.78125 204.546875 C 98.78125 204.628906 98.777344 204.710938 98.773438 204.792969 C 98.179688 225.792969 100.914062 244.019531 110.511719 261.136719 C 110.515625 261.148438 110.519531 261.152344 110.523438 261.164062 C 111.644531 263.160156 112.859375 265.144531 114.175781 267.113281 C 114.191406 267.140625 114.210938 267.167969 114.230469 267.195312 C 116.136719 270.050781 118.246094 272.886719 120.59375 275.695312 C 121.652344 276.988281 122.6875 278.207031 123.714844 279.335938 C 123.75 279.375 123.777344 279.414062 123.816406 279.453125 C 123.832031 279.472656 123.855469 279.492188 123.875 279.511719 C 124.992188 280.734375 126.191406 281.90625 127.433594 283.050781 C 127.828125 283.414062 128.222656 283.769531 128.625 284.121094 C 129.574219 284.953125 130.5625 285.757812 131.578125 286.542969 C 131.9375 286.824219 132.289062 287.121094 132.652344 287.390625 C 133.761719 288.210938 134.902344 289.003906 136.078125 289.765625 C 136.1875 289.835938 136.300781 289.894531 136.40625 289.964844 C 137.226562 290.488281 138.058594 290.96875 138.894531 291.457031 C 139.476562 291.800781 140.058594 292.144531 140.648438 292.464844 C 141.597656 292.988281 142.546875 293.476562 143.503906 293.953125 C 143.9375 294.164062 144.367188 294.375 144.800781 294.578125 C 145.898438 295.097656 146.992188 295.597656 148.09375 296.058594 C 148.222656 296.113281 148.355469 296.164062 148.484375 296.214844 C 162.015625 301.832031 175.488281 303.417969 183.003906 303.835938 C 183.035156 303.839844 183.066406 303.839844 183.097656 303.84375 C 183.738281 303.878906 184.324219 303.90625 184.875 303.925781 C 185.109375 303.933594 185.308594 303.941406 185.523438 303.949219 C 185.894531 303.960938 186.25 303.972656 186.570312 303.976562 C 187.078125 303.988281 187.511719 303.992188 187.851562 303.992188 C 187.859375 303.992188 187.878906 303.992188 187.890625 303.992188 L 187.898438 303.992188 L 188.476562 303.988281 L 189.183594 303.992188 C 189.183594 303.992188 189.1875 303.992188 189.191406 303.992188 L 189.203125 303.992188 C 189.222656 303.992188 189.253906 303.992188 189.273438 303.992188 C 189.582031 303.992188 189.976562 303.988281 190.441406 303.976562 C 190.761719 303.972656 191.117188 303.960938 191.5 303.949219 C 191.640625 303.945312 191.777344 303.941406 191.925781 303.9375 C 199.484375 303.683594 216.902344 302.140625 233.347656 294.066406 C 233.523438 293.980469 233.695312 293.902344 233.871094 293.816406 C 234.894531 293.300781 235.910156 292.757812 236.921875 292.191406 C 237.132812 292.074219 237.351562 291.972656 237.5625 291.851562 C 237.765625 291.734375 237.953125 291.601562 238.15625 291.480469 C 239.238281 290.851562 240.308594 290.191406 241.367188 289.496094 C 241.894531 289.148438 242.410156 288.789062 242.925781 288.429688 C 243.800781 287.816406 244.671875 287.199219 245.523438 286.539062 C 246.246094 285.980469 246.933594 285.394531 247.621094 284.8125 C 248.253906 284.28125 248.886719 283.765625 249.5 283.207031 C 250.78125 282.035156 252.003906 280.832031 253.148438 279.578125 C 253.191406 279.535156 253.238281 279.496094 253.277344 279.453125 C 256.527344 275.882812 259.375 272.289062 261.898438 268.660156 C 261.957031 268.574219 262.011719 268.488281 262.066406 268.402344 C 263.402344 266.472656 264.625 264.527344 265.769531 262.574219 C 265.785156 262.542969 265.804688 262.507812 265.824219 262.472656 C 266.171875 261.882812 266.503906 261.285156 266.832031 260.691406 C 266.890625 260.695312 266.941406 260.714844 266.996094 260.714844 C 267.722656 260.714844 268.460938 260.53125 269.140625 260.15625 C 277.734375 255.371094 287.296875 249.859375 293.078125 245.257812 C 298.683594 240.789062 305.398438 234.570312 307.542969 226.058594 C 309.660156 217.652344 306.652344 208.242188 300.054688 202.628906 " fill-opacity="1" fill-rule="nonzero"/></g></svg>